<svg xmlns="http://www.w3.org/2000/svg" viewBox="0 0 274 30" role="img" aria-label="firstname.lastname@epfl.ch">
  <defs>
    <g id="g-f">
      <path d="M6.8 3.2C4.2 1.9 2.8 4.1 2.8 7.4V20.2" />
      <path d="M1.2 9.2C3.8 8.7 5.7 8.7 7.2 9.1" />
    </g>
    <g id="g-i">
      <path d="M4 9.2C3.5 12.8 3.5 16.3 4.1 20" />
      <circle cx="4" cy="5.1" r="1.25" fill="#111" stroke="none" />
    </g>
    <g id="g-r">
      <path d="M2 9.1C1.9 12.7 1.9 16.4 2.1 20" />
      <path d="M2.1 12.3C3.6 9.2 5.8 8 7.7 9.6" />
    </g>
    <g id="g-s">
      <path d="M7 9.6C5.1 7.9 1.9 8.8 1.9 11.3C1.9 13.5 6.8 12.4 6.9 16.1C7 19.3 3 21.1 1.5 18.4" />
    </g>
    <g id="g-t">
      <path d="M4 4.8C3.8 9.1 3.7 13.9 4.1 17.5C4.3 19.8 6.2 20.3 7.2 18.4" />
      <path d="M1.3 9.1C3.4 8.8 5.7 8.8 7.3 9.2" />
    </g>
    <g id="g-n">
      <path d="M2 9.1C1.9 12.7 1.9 16.4 2.1 20" />
      <path d="M2.1 12.4C4.2 8.6 7.5 9.2 7.4 13.4C7.4 15.7 7.3 17.9 7.7 20" />
    </g>
    <g id="g-a">
      <path d="M7.1 9.6C4.2 7.6 1.6 10.2 1.5 14.9C1.5 19.1 5 21.4 7.2 16.4" />
      <path d="M7.1 9.6C6.9 13.1 6.9 16.7 7.5 20" />
    </g>
    <g id="g-m">
      <path d="M1.5 9.1C1.4 12.7 1.4 16.5 1.6 20" />
      <path d="M1.7 12.3C3.1 8.9 5.2 9.1 5.1 13.6C5.1 15.8 5.1 17.8 5.4 20" />
      <path d="M5.4 12.4C7.1 8.9 9.3 9.3 9.2 13.7C9.2 15.9 9.2 17.8 9.6 20" />
    </g>
    <g id="g-e">
      <path d="M2 14.2C3.6 14 5.4 13.6 7 12.8C7.1 8.5 2.4 7.9 1.6 12.9C0.8 17.6 4.6 21.3 7.7 17.1" />
    </g>
    <g id="g-l">
      <path d="M4 4.1C3.7 8.8 3.7 13.4 4.1 17.7C4.3 20 5.7 20.6 7 18.8" />
    </g>
    <g id="g-p">
      <path d="M2 9.1C1.9 13.7 1.9 18.4 2 24.5" />
      <path d="M2.1 11C4.2 8.3 7.8 9.5 7.5 14.2C7.2 18.3 3.9 20.2 2.1 17.1" />
    </g>
    <g id="g-c">
      <path d="M7.3 10.2C4.9 7.7 1.7 10.1 1.5 14.8C1.4 19.3 5.2 21.4 7.4 17.4" />
    </g>
    <g id="g-h">
      <path d="M2 4.1C1.8 8.8 1.8 14.7 2.1 20" />
      <path d="M2.2 12.4C4.2 8.7 7.6 9.2 7.5 13.6C7.5 15.8 7.5 17.9 7.9 20" />
    </g>
    <g id="g-dot">
      <circle cx="3.8" cy="19" r="1.45" fill="#111" stroke="none" />
    </g>
    <g id="g-at">
      <path d="M14.6 17.3C17.1 17.2 18.7 14.9 18.4 11.9C17.9 6.4 13.8 3.7 8.8 4.3C3.5 5 0.7 9.9 1.7 14.9C2.8 20.1 8.5 22.1 12.2 19.5" />
      <path d="M13.3 9.6C10.8 7.7 7.2 9.7 7.3 14.1C7.4 18.2 11.4 18.4 13 14.9" />
      <path d="M13.3 9.6C13.2 11.9 13 14.4 13.4 16.5C13.7 17.6 14.2 17.7 14.6 17.3" />
    </g>
  </defs>
  <g fill="none" stroke="#111" stroke-width="1.65" stroke-linecap="round" stroke-linejoin="round">
    <use href="#g-f" x="2" y="1" />
    <use href="#g-i" x="12" y="1" />
    <use href="#g-r" x="20" y="1" />
    <use href="#g-s" x="30" y="1" />
    <use href="#g-t" x="40" y="1" />
    <use href="#g-n" x="50" y="1" />
    <use href="#g-a" x="60" y="1" />
    <use href="#g-m" x="70" y="1" />
    <use href="#g-e" x="82" y="1" />
    <use href="#g-dot" x="92" y="1" />
    <use href="#g-l" x="99" y="1" />
    <use href="#g-a" x="107" y="1" />
    <use href="#g-s" x="117" y="1" />
    <use href="#g-t" x="127" y="1" />
    <use href="#g-n" x="137" y="1" />
    <use href="#g-a" x="147" y="1" />
    <use href="#g-m" x="157" y="1" />
    <use href="#g-e" x="169" y="1" />
    <use href="#g-at" x="179" y="1" />
    <use href="#g-e" x="201" y="1" />
    <use href="#g-p" x="211" y="1" />
    <use href="#g-f" x="221" y="1" />
    <use href="#g-l" x="231" y="1" />
    <use href="#g-dot" x="241" y="1" />
    <use href="#g-c" x="248" y="1" />
    <use href="#g-h" x="258" y="1" />
  </g>
</svg>
